<?xml version="1.0" encoding="UTF-8" standalone="no"?>
<!DOCTYPE svg PUBLIC "-//W3C//DTD SVG 20010904//EN" "http://www.w3.org/TR/2001/REC-SVG-20010904/DTD/svg10.dtd">
<svg version="1.0" xmlns="http://www.w3.org/2000/svg" width="128.000000pt" height="128.000000pt" viewBox="0 0 128.000000 128.000000" preserveAspectRatio="xMidYMid meet">
<metadata>
Created by potrace 1.10, written by Peter Selinger 2001-2011
</metadata>
<g transform="translate(0.000000,128.000000) scale(0.050000,-0.050000)" fill="#ffffff" stroke="none">
<path d="M568 2192 c-6 -15 -8 -62 -4 -105 l6 -77 700 0 700 0 0 100 0 100 -696 5 c-583 5 -697 1 -706 -23z"/>
<path d="M568 1712 c-6 -15 -8 -62 -4 -105 l6 -77 700 0 700 0 0 100 0 100 -696 5 c-583 5 -697 1 -706 -23z"/>
<path d="M551 1191 c-29 -156 -54 -151 705 -151 747 1 729 -2 720 122 l-6 88 -703 5 -702 6 -14 -70z"/>
<path d="M191 1128 c-27 -27 -31 -93 -26 -494 l5 -463 50 -25 c73 -38 2106 -28 2144 10 19 19 28 139 32 467 7 483 -4 537 -105 537 -103 0 -111 -31 -111 -441 l0 -379 -898 0 -899 0 -6 377 c-7 403 -17 443 -108 443 -25 0 -60 -14 -78 -32z"/>
<path d="M569 767 c-38 -39 -28 -162 15 -190 44 -28 1344 -21 1372 7 40 40 30 171 -15 195 -72 39 -1332 28 -1372 -12z"/>
</g>
</svg>